<?xml version="1.0" encoding="UTF-8"?>
<svg version="1.1" xmlns="http://www.w3.org/2000/svg" width="512" height="512">
<path d="M0 0 C2.58059396 2.27772682 5.10608696 4.6028745 7.6171875 6.95703125 C8.11089844 7.41674316 8.60460937 7.87645508 9.11328125 8.35009766 C23.02260995 21.4052687 34.03371067 36.51203666 43.6171875 52.95703125 C43.97119629 53.55660645 44.32520508 54.15618164 44.68994141 54.77392578 C70.22357455 98.47226462 75.5978688 153.32424759 63.41503906 201.96728516 C55.72367847 230.78870555 42.92912541 257.14265757 23.6171875 279.95703125 C22.90304687 280.80136719 22.18890625 281.64570313 21.453125 282.515625 C-6.51410145 314.41083269 -41.2620415 336.27444309 -82.40234375 346.8515625 C-83.06186035 347.03799316 -83.72137695 347.22442383 -84.40087891 347.41650391 C-86.3828125 347.95703125 -86.3828125 347.95703125 -88.42333984 348.33740234 C-92.39129154 349.32534134 -94.00247618 350.42797166 -96.44067383 353.81958008 C-98.19468127 356.82244964 -99.83749501 359.84225069 -101.3828125 362.95703125 C-100.82286087 362.9481488 -100.26290924 362.93926636 -99.68598938 362.93011475 C-93.79621716 362.84081535 -87.9066408 362.78095905 -82.01635742 362.73730469 C-79.8255226 362.71733383 -77.63474007 362.69014747 -75.4440918 362.65527344 C-56.16183595 362.35625556 -40.25174125 363.96027903 -25.51953125 377.6640625 C-15.485431 388.4319178 -11.21801163 401.43694625 -11.30078125 415.94921875 C-11.90705995 430.78861167 -18.61704079 443.00633374 -29.3828125 452.95703125 C-40.6939822 461.82254264 -52.36845066 464.58096593 -66.5390625 464.48828125 C-67.84435913 464.49210815 -69.14965576 464.49593506 -70.49450684 464.49987793 C-73.23090977 464.50571828 -75.96678428 464.49737902 -78.703125 464.47851562 C-82.20481819 464.45554563 -85.70529687 464.46899459 -89.20694733 464.49280548 C-92.5677503 464.51072356 -95.92822506 464.49819276 -99.2890625 464.48828125 C-100.54319946 464.49637817 -101.79733643 464.5044751 -103.08947754 464.51281738 C-104.25168823 464.50020874 -105.41389893 464.4876001 -106.61132812 464.47460938 C-108.1425531 464.46983582 -108.1425531 464.46983582 -109.70471191 464.46496582 C-113.11140337 463.81884507 -114.2983655 462.68516645 -116.3828125 459.95703125 C-116.91436171 456.23618676 -117.03187229 454.00959242 -115.03540039 450.77197266 C-110.79198636 447.86856355 -106.46531134 448.39356135 -101.44140625 448.41796875 C-100.3633522 448.40617584 -99.28529816 448.39438293 -98.17457581 448.38223267 C-94.72300913 448.34692053 -91.27204502 448.33780539 -87.8203125 448.33203125 C-84.39375686 448.3156143 -80.96746853 448.29335078 -77.54103088 448.26040649 C-75.41067839 448.24100414 -73.28020485 448.23141645 -71.14976501 448.23348999 C-58.55412341 448.14471002 -47.51332488 446.34831363 -37.98046875 437.640625 C-31.55675465 430.87138105 -29.12632619 422.69270829 -27.9453125 413.58203125 C-29.12740095 403.78758412 -32.0797377 394.83051341 -39.3828125 387.95703125 C-46.05714542 383.04912241 -52.79709839 379.77186491 -61.18530273 379.60302734 C-62.30343857 379.57735687 -63.4215744 379.5516864 -64.57359314 379.52523804 C-65.76747147 379.51046417 -66.96134979 379.49569031 -68.19140625 379.48046875 C-70.05153099 379.45625351 -70.05153099 379.45625351 -71.94923401 379.43154907 C-74.56741803 379.40393994 -77.18567294 379.38246328 -79.80395508 379.36669922 C-82.48065778 379.34894358 -85.15529519 379.30711037 -87.83129883 379.24365234 C-91.70196993 379.15838373 -95.56991326 379.12598367 -99.44140625 379.10546875 C-101.22918739 379.05294449 -101.22918739 379.05294449 -103.05308533 378.99935913 C-109.27607794 378.93995285 -109.27607794 378.93995285 -114.62332153 381.72540283 C-116.49915579 383.8265459 -116.49915579 383.8265459 -117.98304749 386.04165649 C-120.26940936 389.17021005 -122.7144611 389.96222409 -126.3828125 390.95703125 C-133.21327042 391.84163154 -138.76054233 391.06110878 -144.3828125 386.95703125 C-145.22228646 385.77452568 -146.03660331 384.57384161 -146.82763672 383.35839844 C-148.85086409 380.95144335 -149.9510031 380.0629537 -153.034729 379.30651855 C-156.38061279 379.06301955 -159.66126646 379.03945222 -163.015625 379.09765625 C-164.24384979 379.09570251 -165.47207458 379.09374878 -166.73751831 379.09173584 C-169.33485848 379.09573159 -171.93222153 379.11699366 -174.52929688 379.15429688 C-178.47390293 379.20658179 -182.41454474 379.19551033 -186.359375 379.17578125 C-188.89064561 379.18760559 -191.42190221 379.20311364 -193.953125 379.22265625 C-195.11917267 379.2188092 -196.28522034 379.21496216 -197.48660278 379.21099854 C-207.6571429 379.41257631 -217.41079949 382.10445066 -224.92578125 389.30859375 C-231.10819613 396.30317573 -233.63054972 404.15386126 -234.8203125 413.33203125 C-233.54850185 423.86989095 -230.30055102 433.0994739 -221.984375 439.92578125 C-211.00072051 447.97386442 -200.42606877 448.09146749 -187.25110626 448.09513092 C-183.52018076 448.09948246 -179.78942206 448.13055665 -176.05859375 448.15625 C-171.32920955 448.18666755 -166.60009687 448.20933945 -161.87060547 448.20751953 C-158.02906835 448.20673314 -154.18833494 448.23004565 -150.34700775 448.26940155 C-148.88782107 448.27985791 -147.42854162 448.28138814 -145.96933746 448.27375031 C-143.93298844 448.26414326 -141.89656467 448.28806327 -139.86035156 448.31347656 C-138.70311584 448.31712219 -137.54588013 448.32076782 -136.35357666 448.32452393 C-133.3828125 448.95703125 -133.3828125 448.95703125 -130.97406006 451.27069092 C-129.3828125 453.95703125 -129.3828125 453.95703125 -129.4453125 457.58203125 C-130.69828248 462.09272319 -130.69828248 462.09272319 -133.3828125 463.95703125 C-135.87153671 464.25823603 -138.11162959 464.37731836 -140.60131836 464.36108398 C-141.33350586 464.36794724 -142.06569336 464.37481049 -142.82006836 464.38188171 C-145.24612741 464.4002111 -147.67154261 464.39629948 -150.09765625 464.390625 C-151.79098215 464.39518798 -153.4843062 464.40049391 -155.17762756 464.4065094 C-158.7344614 464.41545558 -162.29107099 464.41300516 -165.84790039 464.40307617 C-170.37690159 464.39165818 -174.90511475 464.41167882 -179.43401241 464.44099331 C-182.93708626 464.45947621 -186.43997617 464.45903774 -189.94308662 464.45335579 C-191.61062274 464.45320365 -193.27817219 464.45915814 -194.94566154 464.47164726 C-211.35297164 464.57710371 -224.80599172 461.16442601 -237.1953125 449.64453125 C-246.90479045 439.2149724 -251.76998201 425.46496613 -251.53125 411.33203125 C-250.64093092 397.08692597 -244.62038388 384.69581391 -234.25390625 374.95703125 C-223.33469875 365.89350302 -211.24214001 362.61608402 -197.3203125 362.76171875 C-196.28841797 362.76454865 -195.25652344 362.76737854 -194.19335938 362.77029419 C-190.92305518 362.78141873 -187.65303282 362.80650899 -184.3828125 362.83203125 C-182.15495189 362.84207103 -179.92708696 362.85119513 -177.69921875 362.859375 C-172.26032179 362.8813327 -166.82158729 362.91473265 -161.3828125 362.95703125 C-165.38920862 354.48612656 -165.38920862 354.48612656 -172.12890625 348.32470703 C-175.20225638 347.32423565 -178.20787543 346.62256235 -181.3828125 346.01953125 C-183.62617894 345.49196749 -185.868378 344.95941474 -188.109375 344.421875 C-189.18993164 344.17679199 -190.27048828 343.93170898 -191.38378906 343.67919922 C-220.97292553 336.55410433 -248.18450367 318.12872147 -269.90332031 297.36914062 C-270.8844609 296.43268565 -271.87076497 295.50160894 -272.86230469 294.57617188 C-310.14519352 259.72637862 -330.29293167 208.41324626 -332.18945312 158.04272461 C-332.90329704 133.68280116 -329.35871665 110.01617333 -321.3828125 86.95703125 C-320.9506543 85.69777832 -320.9506543 85.69777832 -320.50976562 84.41308594 C-319.63885651 81.91755972 -318.7379289 79.43572838 -317.8203125 76.95703125 C-317.55178467 76.2088916 -317.28325684 75.46075195 -317.0065918 74.68994141 C-315.28236828 70.23143712 -313.64118834 67.49351328 -309.3828125 64.95703125 C-305.88608288 65.01731969 -303.4845574 65.25925948 -300.5078125 67.14453125 C-298.81797497 69.86704728 -298.57082312 71.72107915 -298.3828125 74.95703125 C-299.30218397 78.32590897 -300.65723186 81.49091518 -302.0078125 84.70703125 C-319.67814297 129.01576051 -319.88423341 178.76674926 -301.13427734 222.89550781 C-291.21022222 245.27278041 -278.21339582 264.27616587 -261.3828125 281.95703125 C-260.69058594 282.71371094 -259.99835938 283.47039062 -259.28515625 284.25 C-248.21803751 295.95683658 -234.47111412 305.26816155 -220.3828125 312.95703125 C-219.44236084 313.47257568 -219.44236084 313.47257568 -218.48291016 313.99853516 C-203.85367108 321.90894076 -188.52242115 327.69521814 -172.23144531 331.09643555 C-162.68863996 333.21760732 -157.00802011 337.45277874 -151.63110352 345.61669922 C-151.05545654 346.55143066 -150.47980957 347.48616211 -149.88671875 348.44921875 C-149.24541016 349.48433594 -148.60410156 350.51945312 -147.94335938 351.5859375 C-147.28400391 352.65714844 -146.62464844 353.72835938 -145.9453125 354.83203125 C-141.93016088 361.34628904 -137.93384393 367.80130088 -133.3828125 373.95703125 C-130.2277648 373.65811785 -128.78522487 373.40953363 -126.64111328 370.99853516 C-126.12532715 370.15210449 -125.60954102 369.30567383 -125.078125 368.43359375 C-124.49417969 367.49386719 -123.91023437 366.55414063 -123.30859375 365.5859375 C-122.71433594 364.59464844 -122.12007812 363.60335938 -121.5078125 362.58203125 C-120.32291667 360.65755208 -119.13802083 358.73307292 -117.953125 356.80859375 C-117.36837402 355.84856445 -116.78362305 354.88853516 -116.18115234 353.89941406 C-114.3443063 350.89402871 -112.49078258 347.90058668 -110.6171875 344.91796875 C-110.06514648 344.0367334 -109.51310547 343.15549805 -108.94433594 342.24755859 C-103.26016562 333.90970901 -94.11066907 332.38588195 -84.88745117 329.86572266 C-58.74354775 322.69562789 -33.84731343 310.97088432 -13.3828125 292.95703125 C-12.12404297 291.86261719 -12.12404297 291.86261719 -10.83984375 290.74609375 C-8.31893359 288.51831268 -5.84221468 286.25247329 -3.3828125 283.95703125 C-2.57070313 283.1990625 -1.75859375 282.44109375 -0.921875 281.66015625 C33.21010625 248.71256552 51.08697972 201.83494668 52.6171875 154.95703125 C53.08881863 104.90517726 33.19044237 58.1312085 -1.23046875 22.11328125 C-35.16772003 -12.40854529 -83.15343857 -31.55200193 -131.30664062 -32.07470703 C-176.64990897 -31.63062348 -220.95643129 -15.09164921 -254.22265625 15.953125 C-256.24177679 17.82619704 -258.32444313 19.57639966 -260.4453125 21.33203125 C-265.40696002 25.65475434 -269.32755319 30.80095724 -273.3828125 35.95703125 C-274.77818057 37.68657339 -276.17399418 39.41575619 -277.5703125 41.14453125 C-280.54020177 44.86283262 -283.42713416 48.63285649 -286.25390625 52.4609375 C-287.3828125 53.95703125 -287.3828125 53.95703125 -288.3828125 54.95703125 C-295.45527627 55.53674139 -295.45527627 55.53674139 -298.8828125 53.39453125 C-300.95820995 50.02201039 -300.73936073 47.87906174 -300.3828125 43.95703125 C-298.73046875 40.81640625 -298.73046875 40.81640625 -296.4453125 37.70703125 C-296.03708252 37.14693359 -295.62885254 36.58683594 -295.20825195 36.00976562 C-293.95441164 34.308108 -292.67497841 32.62971844 -291.3828125 30.95703125 C-290.66351563 30.02375 -289.94421875 29.09046875 -289.203125 28.12890625 C-281.13343445 18.01962359 -272.44306514 8.12561245 -262.3828125 -0.04296875 C-261.31873771 -0.9423858 -260.25496399 -1.84215909 -259.19140625 -2.7421875 C-249.83292749 -10.5534317 -239.94408702 -16.98148538 -229.3828125 -23.04296875 C-228.74907715 -23.41405762 -228.1153418 -23.78514648 -227.46240234 -24.16748047 C-210.09931737 -34.28312143 -190.88474492 -40.51370096 -171.3828125 -45.04296875 C-170.63435059 -45.22230957 -169.88588867 -45.40165039 -169.11474609 -45.58642578 C-109.97772604 -59.06254689 -45.18010458 -38.73638475 0 0 Z " fill="#000000" transform="translate(387.3828125,48.04296875)"/>
<path d="M0 0 C30.37504771 30.29309143 47.81107055 71.68549501 49.44775391 114.44384766 C49.48900391 115.43900391 49.53025391 116.43416016 49.57275391 117.45947266 C50.2976584 152.79856663 40.06154039 191.12253253 18.35791016 219.51416016 C16.44775391 221.44384766 16.44775391 221.44384766 12.76025391 222.81884766 C9.15970842 222.41123873 7.27319414 221.6875796 4.44775391 219.44384766 C3.00891295 216.56616574 3.14449356 214.65082577 3.44775391 211.44384766 C4.69547987 209.00038431 5.94827174 206.8426476 7.44775391 204.56884766 C8.28273041 203.23295134 9.11334339 201.8943194 9.93994141 200.55322266 C10.36114258 199.87066406 10.78234375 199.18810547 11.21630859 198.48486328 C24.15761919 177.03574422 31.6757771 151.48274746 32.44775391 126.44384766 C32.48771484 125.52345703 32.52767578 124.60306641 32.56884766 123.65478516 C33.39752114 88.26555266 21.28852825 53.16069239 -0.55224609 25.44384766 C-1.20362549 24.61312744 -1.20362549 24.61312744 -1.86816406 23.765625 C-26.04925173 -6.7235725 -62.59537563 -27.34973547 -101.25634766 -32.30224609 C-142.70118397 -36.88568184 -183.63402177 -26.49559516 -216.55224609 -0.55615234 C-217.10605957 -0.12189941 -217.65987305 0.31235352 -218.23046875 0.75976562 C-250.87283679 26.64854028 -269.99528253 64.69253186 -274.95068359 105.74462891 C-275.22918725 108.64633592 -275.42210445 111.53192844 -275.55224609 114.44384766 C-275.59349609 115.34619141 -275.63474609 116.24853516 -275.67724609 117.17822266 C-276.60077175 158.96775879 -259.88852742 197.48711147 -231.93896484 227.95166016 C-204.44573689 256.6598098 -165.56766779 273.19113734 -125.95849609 274.56884766 C-84.67485551 275.21898373 -48.43848721 260.62672742 -17.39990234 233.86181641 C-11.11844034 228.52817446 -11.11844034 228.52817446 -7.61474609 228.00634766 C-3.71284295 228.56376239 -2.14250879 229.47266398 0.44775391 232.44384766 C1.26708442 235.9942799 1.2337327 238.16663212 -0.70849609 241.32275391 C-24.89031905 270.66099499 -67.17572496 286.97795495 -103.92724609 290.75634766 C-150.0740921 294.85838937 -195.46019782 281.6619529 -231.14453125 251.90429688 C-266.45936514 221.73531115 -288.50996855 179.51224194 -292.23974609 133.06884766 C-292.36056624 130.86136282 -292.46593193 128.65295079 -292.55224609 126.44384766 C-292.59349609 125.52216797 -292.63474609 124.60048828 -292.67724609 123.65087891 C-293.35360574 93.67969215 -285.77962255 64.68206675 -271.55224609 38.44384766 C-271.23674805 37.84378906 -270.92125 37.24373047 -270.59619141 36.62548828 C-250.10974751 -2.30936986 -212.75045374 -29.86418148 -171.45458984 -43.23535156 C-110.81800005 -61.9928825 -44.84405256 -44.03160774 0 0 Z " fill="#000000" transform="translate(377.55224609375,79.55615234375)"/>
<path d="M0 0 C1.29421875 -0.02835937 2.5884375 -0.05671875 3.921875 -0.0859375 C14.01339617 0.52161447 22.84910316 6.14554564 31.3125 11.1875 C33.02233659 12.19062875 34.73218249 13.19374203 36.44256592 14.19593811 C38.20721013 15.23125103 39.96962397 16.27028954 41.73193359 17.30957031 C46.2487155 19.96785947 50.79636749 22.57199639 55.34277344 25.17919922 C64.45495025 30.40765294 73.53837626 35.68334555 82.5625 41.0625 C83.37444824 41.54356201 84.18639648 42.02462402 85.02294922 42.52026367 C95.43406429 48.76581684 102.67428409 56.50762269 105.81414795 68.53620911 C106.40321934 72.37294796 106.40577549 76.17390413 106.41113281 80.0456543 C106.41609772 80.90814285 106.42106262 81.77063141 106.42617798 82.65925598 C106.44075355 85.50591844 106.44759465 88.35252514 106.453125 91.19921875 C106.45888114 93.18593852 106.46463881 95.17265829 106.47039795 97.15937805 C106.48089547 101.32459775 106.48674601 105.48979823 106.49023438 109.6550293 C106.4957102 114.97317156 106.51972411 120.29105666 106.54820633 125.60911846 C106.56689985 129.7142662 106.57204192 133.81935288 106.57357025 137.92453957 C106.57658319 139.88400487 106.58456544 141.84346946 106.59775543 143.80289268 C106.72063559 163.46378429 106.72063559 163.46378429 103.25 171.375 C102.83621094 172.32632813 102.42242187 173.27765625 101.99609375 174.2578125 C95.87089869 184.75292285 86.08545693 190.3714044 75.625 196 C73.40780908 197.21684771 71.1916899 198.43564994 68.9765625 199.65625 C67.85797852 200.27113281 66.73939453 200.88601563 65.58691406 201.51953125 C60.34496709 204.43428081 55.17163594 207.46275028 50 210.5 C48.02616499 211.65515866 46.05220767 212.81010836 44.078125 213.96484375 C43.11583984 214.52800293 42.15355469 215.09116211 41.16210938 215.67138672 C36.36379026 218.47845168 31.56253006 221.27985509 26.75 224.0625 C25.90791992 224.55572754 25.06583984 225.04895508 24.19824219 225.55712891 C16.29540084 230.10884622 9.70118637 232.90717198 0.5 232.875 C-0.221875 232.90335938 -0.94375 232.93171875 -1.6875 232.9609375 C-12.78697242 232.99974684 -22.52999654 226.61880495 -31.75 221.0625 C-33.84426849 219.82029256 -35.93935592 218.579465 -38.03515625 217.33984375 C-39.1245752 216.6938623 -40.21399414 216.04788086 -41.33642578 215.38232422 C-46.65533078 212.25458592 -52.01721543 209.20349462 -57.38076782 206.15316772 C-61.46209857 203.83058079 -65.5375697 201.49771437 -69.61425781 199.16699219 C-71.58416242 198.04124477 -73.5547626 196.91671275 -75.52636719 195.79394531 C-77.87613745 194.45342361 -80.22023495 193.10357958 -82.5625 191.75 C-83.20695068 191.38487305 -83.85140137 191.01974609 -84.51538086 190.64355469 C-90.68711456 187.0504959 -96.34827087 182.87911081 -100 176.625 C-100.68835938 175.48804688 -100.68835938 175.48804688 -101.390625 174.328125 C-106.43462024 163.37048017 -106.19122656 152.91096212 -106.1484375 141.0625 C-106.15046182 139.08292534 -106.15337623 137.10335142 -106.15713501 135.1237793 C-106.16154149 130.98837131 -106.15518148 126.8531586 -106.14111328 122.71777344 C-106.12402251 117.43896436 -106.13387271 112.160613 -106.15183067 106.88182068 C-106.16271391 102.79810184 -106.1592014 98.71449003 -106.1514473 94.63076782 C-106.14945782 92.68527165 -106.15186011 90.73976551 -106.15888596 88.79428101 C-106.20033632 74.09321815 -105.5912344 62.00035784 -95.25 50.625 C-91.2266086 47.00394774 -87.19351108 43.91440516 -82.48828125 41.23046875 C-81.46500732 40.64370361 -80.4417334 40.05693848 -79.38745117 39.45239258 C-77.74160034 38.51689575 -77.74160034 38.51689575 -76.0625 37.5625 C-74.90379826 36.8997774 -73.74535556 36.23660173 -72.5871582 35.57299805 C-70.17920075 34.19375601 -67.77013974 32.81647036 -65.36035156 31.44042969 C-60.79656462 28.8322452 -56.24589347 26.2014541 -51.6953125 23.5703125 C-48.46295298 21.70221023 -45.22780475 19.83901536 -41.9921875 17.9765625 C-37.88454973 15.61094062 -33.78657946 13.22974969 -29.6953125 10.8359375 C-27.81774547 9.74472776 -25.94014317 8.65357871 -24.0625 7.5625 C-23.21969482 7.06468018 -22.37688965 6.56686035 -21.50854492 6.05395508 C-14.41012594 1.94655272 -8.29286074 0.08194526 0 0 Z M-26.75 27.75 C-28.8629038 28.991528 -30.97619931 30.23238956 -33.08984375 31.47265625 C-34.72348877 32.43196045 -34.72348877 32.43196045 -36.39013672 33.41064453 C-40.90053917 36.04766663 -45.42811614 38.65426746 -49.95776367 41.25805664 C-53.25362529 43.15363879 -56.54524206 45.05640402 -59.8359375 46.9609375 C-63.37180806 49.00730993 -66.91594277 51.03611694 -70.4765625 53.0390625 C-79.46574696 58.15536053 -86.86082111 62.94374897 -89.75 73.375 C-89.93892819 76.22496816 -90.03382113 78.97573612 -90.0246582 81.82373047 C-90.02976913 82.65056335 -90.03488007 83.47739624 -90.04014587 84.32928467 C-90.05399446 87.05032685 -90.05308857 89.77111436 -90.05078125 92.4921875 C-90.05467099 94.39258925 -90.05900624 96.29299013 -90.06376648 98.19338989 C-90.07121868 102.17273784 -90.07094482 106.15199705 -90.06567383 110.13134766 C-90.05988287 115.21763975 -90.07680608 120.30356727 -90.1000185 125.38979912 C-90.11478847 129.31387436 -90.11562306 133.23786248 -90.11250877 137.1619606 C-90.11302042 139.03654832 -90.11822862 140.91114113 -90.12832069 142.78570175 C-90.14073018 145.41319855 -90.13386647 148.03999394 -90.12231445 150.66748047 C-90.12995819 151.43345551 -90.13760193 152.19943054 -90.14547729 152.98861694 C-90.0834081 159.41244408 -88.76020935 164.89180022 -84.625 170 C-77.3187339 176.03561112 -69.02004714 180.62958239 -60.8125 185.3125 C-59.09739514 186.29649986 -57.38229318 187.28050479 -55.6673584 188.26480103 C-53.89059365 189.28408448 -52.11307739 190.30204745 -50.33544922 191.31982422 C-44.507611 194.65820444 -38.69200101 198.01778362 -32.875 201.375 C-31.83738525 201.97304443 -30.79977051 202.57108887 -29.73071289 203.18725586 C-28.2281897 204.05362671 -28.2281897 204.05362671 -26.6953125 204.9375 C-25.72239258 205.49824219 -24.74947266 206.05898438 -23.74707031 206.63671875 C-21.6374668 207.86027504 -19.53310255 209.0928871 -17.43261719 210.33203125 C-15.82241699 211.28142578 -15.82241699 211.28142578 -14.1796875 212.25 C-13.21015137 212.82492187 -12.24061523 213.39984375 -11.24169922 213.9921875 C-5.59286453 217.1271081 -0.05296315 217.08814799 6.25 216.375 C9.16732163 215.29044153 9.16732163 215.29044153 11.96484375 213.75 C13.00616455 213.20335693 14.04748535 212.65671387 15.12036133 212.09350586 C19.92246411 209.4566386 24.6628019 206.73155439 29.375 203.9375 C31.46704161 202.70634057 33.55950515 201.47589789 35.65234375 200.24609375 C36.7285498 199.61300293 37.80475586 198.97991211 38.91357422 198.32763672 C43.44674565 195.67460693 48.00050262 193.0580939 52.55541992 190.44262695 C64.35767119 183.67950906 64.35767119 183.67950906 76.0625 176.75 C76.97644531 176.20085937 77.89039063 175.65171875 78.83203125 175.0859375 C84.4284544 171.12594826 88.99057781 166.26044638 90.25 159.375 C90.35456174 156.62617591 90.40717892 153.90234378 90.41113281 151.15332031 C90.41609772 150.32677948 90.42106262 149.50023865 90.42617798 148.64865112 C90.44077089 145.91680057 90.44759731 143.18500811 90.453125 140.453125 C90.45887942 138.54986571 90.46463712 136.64660644 90.47039795 134.74334717 C90.48090019 130.75207245 90.48674774 126.76081783 90.49023438 122.76953125 C90.49571322 117.66751208 90.51973153 112.56576057 90.54820633 107.46382523 C90.56687704 103.5311812 90.5720407 99.59860104 90.57357025 95.66591644 C90.576588 93.78573902 90.58458674 91.9055625 90.59775543 90.02542877 C90.61490654 87.3881678 90.61291357 84.75155269 90.60644531 82.11425781 C90.62026749 80.96058212 90.62026749 80.96058212 90.6343689 79.78359985 C90.58781613 73.69124822 89.3344466 68.37787424 85.79272461 63.27563477 C80.96604811 58.62072611 75.70204502 55.47229083 69.8125 52.3125 C67.7491055 51.17610183 65.68663378 50.03802682 63.625 48.8984375 C62.56925781 48.31803711 61.51351562 47.73763672 60.42578125 47.13964844 C55.34316647 44.31545259 50.32778722 41.37911915 45.3125 38.4375 C44.33522949 37.86612305 43.35795898 37.29474609 42.35107422 36.70605469 C38.20061875 34.27867327 34.05288753 31.84669349 29.90722656 29.41113281 C27.66394984 28.09326413 25.42006569 26.77642881 23.17553711 25.46069336 C21.05771219 24.21918776 18.94127832 22.97530538 16.82641602 21.72875977 C15.87694092 21.17244873 14.92746582 20.6161377 13.94921875 20.04296875 C12.69371216 19.30469849 12.69371216 19.30469849 11.4128418 18.55151367 C7.79736499 16.58481509 4.74949435 16.13769472 0.6875 16 C-0.28316406 15.95101562 -1.25382812 15.90203125 -2.25390625 15.8515625 C-11.08234695 17.17336256 -19.17457555 23.27063517 -26.75 27.75 Z " fill="#000000" transform="translate(255.75,83.625)"/>
<path d="M0 0 C4.95 0 9.9 0 15 0 C17.71423349 5.26949885 20.0931123 10.52115222 22.1875 16.0625 C22.7899418 17.63427669 23.39282984 19.20588241 23.99609375 20.77734375 C24.31562012 21.61249512 24.63514648 22.44764648 24.96435547 23.30810547 C27.24193588 29.22809643 29.57287827 35.12743118 31.89135742 41.03149414 C33.48982914 45.10997133 35.07894199 49.18940865 36.6015625 53.296875 C38.23402236 57.61970166 40.06181219 61.83820119 41.9140625 66.0703125 C43.02659008 69.07173583 43.65895562 71.81999157 44 75 C43 76 43 76 39.62109375 76.09765625 C38.22652508 76.09191424 36.83198403 76.07890228 35.4375 76.0625 C32.983125 76.041875 30.52875 76.02125 28 76 C26.02 71.05 24.04 66.1 22 61 C12.43 60.67 2.86 60.34 -7 60 C-7.99 63.63 -8.98 67.26 -10 71 C-11.23828125 74.16796875 -11.23828125 74.16796875 -13 76 C-16.35546875 76.48828125 -16.35546875 76.48828125 -20.1875 76.3125 C-21.45980469 76.26738281 -22.73210937 76.22226563 -24.04296875 76.17578125 C-25.01878906 76.11777344 -25.99460938 76.05976563 -27 76 C-28.05861152 72.80770113 -27.97107886 71.1229464 -26.70703125 68.0234375 C-26.40829102 67.27505615 -26.10955078 66.5266748 -25.80175781 65.75561523 C-25.47530273 64.97001221 -25.14884766 64.18440918 -24.8125 63.375 C-24.48733398 62.56683838 -24.16216797 61.75867676 -23.82714844 60.92602539 C-22.89481993 58.61309777 -21.94928514 56.30600916 -21 54 C-18.1442937 46.99982871 -18.1442937 46.99982871 -15.625 39.875 C-14.18546264 35.46147337 -12.60878819 31.10405979 -11 26.75 C-10.75072754 26.06405762 -10.50145508 25.37811523 -10.24462891 24.67138672 C-9.17224615 21.79177531 -8.06595512 19.10969913 -6.48046875 16.47265625 C-4.60476318 13.33988151 -3.50467279 10.13513484 -2.3125 6.6875 C-1.549375 4.480625 -0.78625 2.27375 0 0 Z M7 20 C5.68094674 23.39332391 4.37092599 26.79006569 3.0625 30.1875 C2.68931641 31.14720703 2.31613281 32.10691406 1.93164062 33.09570312 C1.57392578 34.02705078 1.21621094 34.95839844 0.84765625 35.91796875 C0.51773682 36.77156982 0.18781738 37.6251709 -0.15209961 38.50463867 C-1.18727029 41.37393639 -1.18727029 41.37393639 -2 46 C3.94 46 9.88 46 16 46 C17.38921579 43.78604512 17.38921579 43.78604512 15.9375 40.3125 C13.53102925 33.45293384 10.74040943 26.73129695 8 20 C7.67 20 7.34 20 7 20 Z " fill="#000000" transform="translate(218,164)"/>
<path d="M0 0 C0 8.91 0 17.82 0 27 C2.97 25.35 5.94 23.7 9 22 C15.7463852 20.47285555 21.78984196 22.01412233 27.70703125 25.41015625 C34.12860789 29.86259525 37.14052973 34.17475728 39.0625 41.8125 C40.57415782 50.53719174 39.54987613 58.40762294 35.26953125 66.21484375 C31.77805042 71.12440295 26.69343126 75.20900609 20.73828125 76.484375 C14.18612688 77.20184118 8.00208753 77.00104376 2 74 C2 73.34 2 72.68 2 72 C1.01 72 0.02 72 -1 72 C-1.33 73.32 -1.66 74.64 -2 76 C-6.29 76 -10.58 76 -15 76 C-14.99476318 74.64656494 -14.98952637 73.29312988 -14.98413086 71.89868164 C-14.96181614 65.61996501 -14.94888094 59.34124473 -14.9375 53.0625 C-14.93489166 51.94197235 -14.93228333 50.8214447 -14.92959595 49.66696167 C-14.90327802 35.95013154 -14.89613895 22.26734521 -15.90795898 8.58032227 C-16.07421875 5.94140625 -16.07421875 5.94140625 -16 2 C-12.8989862 -0.06734253 -11.59827423 -0.36087094 -8 -0.6875 C-6.700625 -0.81705078 -6.700625 -0.81705078 -5.375 -0.94921875 C-3 -1 -3 -1 0 0 Z M-0.5 43.3125 C-1.52243209 48.80807247 -0.81718324 53.42400375 1.75 58.375 C5.07721055 62.25674564 7.32994096 63.78744703 12.4375 64.4375 C16.81182302 63.90030244 18.70606896 62.92793871 22 60 C24.75885847 56.24396377 26.37364303 52.65040177 26.0625 47.9375 C25.07181666 42.81223006 22.2445799 38.78018406 18.1875 35.5625 C9.4388451 33.31284588 4.32827728 35.86890586 -0.5 43.3125 Z " fill="#000000" transform="translate(280,164)"/>
<path d="M0 0 C0.90909622 -0.0049649 1.81819244 -0.00992981 2.75483704 -0.01504517 C5.77170562 -0.02968738 8.7885216 -0.03647248 11.80541992 -0.04199219 C13.89808657 -0.04774227 15.99075319 -0.05350002 18.0834198 -0.05926514 C22.4758631 -0.06978122 26.86828806 -0.0756198 31.26074219 -0.07910156 C36.8899747 -0.08458527 42.51896521 -0.10860822 48.14812183 -0.13707352 C52.47267871 -0.15569545 56.79717727 -0.16090528 61.12177086 -0.16243744 C63.19701141 -0.16546587 65.27225089 -0.1735008 67.34745216 -0.18662262 C70.25135327 -0.20367243 73.15466293 -0.2018053 76.05859375 -0.1953125 C76.9164447 -0.20452728 77.77429565 -0.21374207 78.65814209 -0.22323608 C83.34836707 -0.19037643 86.39975545 0.13927635 90.22338867 3.16113281 C92.17002499 5.72715341 92.23109603 6.97230255 92.09838867 10.22363281 C91.22338867 13.16113281 91.22338867 13.16113281 89.75537109 14.81947327 C85.87178023 16.87732987 82.1683663 16.5869558 77.83666992 16.56518555 C76.41165665 16.57548042 76.41165665 16.57548042 74.95785522 16.58598328 C71.81704777 16.60428742 68.67673803 16.60040892 65.53588867 16.59472656 C63.35400225 16.59928629 61.17211726 16.60459123 58.99023438 16.61061096 C54.41717697 16.61954893 49.84429415 16.61711067 45.27124023 16.60717773 C39.40643515 16.59568131 33.54223154 16.61590676 27.67750549 16.64509487 C23.17195804 16.66342563 18.6665556 16.66317073 14.16098022 16.65745735 C11.99839432 16.65730379 9.83579881 16.66337706 7.67324829 16.67574883 C4.65181533 16.69059953 1.63150486 16.68002539 -1.38989258 16.6628418 C-2.28559967 16.67250977 -3.18130676 16.68217773 -4.10415649 16.69213867 C-10.12933634 16.62025698 -10.12933634 16.62025698 -13.33203125 14.348526 C-15.45993164 11.12644444 -15.31531995 8.93209315 -14.77661133 5.16113281 C-10.49226863 -0.26570127 -6.51454996 0.00842939 0 0 Z " fill="#000000" transform="translate(241.776611328125,466.8388671875)"/>
<path d="M0 0 C0.65740173 -0.00700928 1.31480347 -0.01401855 1.99212646 -0.02124023 C4.15924667 -0.03880619 6.32505466 -0.02720423 8.4921875 -0.01367188 C10.00146739 -0.01636724 11.51074558 -0.02025003 13.02001953 -0.02526855 C16.18083249 -0.03116164 19.34119284 -0.02260738 22.50195312 -0.00390625 C26.55087307 0.01888393 30.59873248 0.00575973 34.64761353 -0.01819611 C37.76350883 -0.03265965 40.87915324 -0.02804571 43.99505615 -0.01768494 C45.4877739 -0.01501915 46.98051454 -0.01828225 48.47320557 -0.02760315 C50.56087454 -0.03777883 52.64683324 -0.02225756 54.734375 0 C56.51497314 0.00477356 56.51497314 0.00477356 58.33154297 0.00964355 C61.98755042 0.6213794 63.14787292 1.60138291 65.3671875 4.51757812 C66.28252668 7.65588389 66.63888002 9.62840261 65.6796875 12.76757812 C64.04584702 14.9460321 62.90810355 15.52487828 60.3671875 16.51757812 C57.4074707 16.77154541 57.4074707 16.77154541 53.91796875 16.77636719 C52.60981201 16.78267151 51.30165527 16.78897583 49.95385742 16.79547119 C48.52913274 16.7918913 47.10440929 16.78778931 45.6796875 16.78320312 C44.21525 16.78455087 42.75081293 16.78649231 41.28637695 16.78900146 C38.21984591 16.79194759 35.15343153 16.78767158 32.08691406 16.77832031 C28.15933445 16.766926 24.2320282 16.77348821 20.30445862 16.78546524 C17.2812698 16.79269768 14.25814562 16.79038956 11.23495483 16.78520966 C9.78689542 16.78387699 8.33883011 16.78550747 6.89077759 16.79016876 C4.86598831 16.79525643 2.84117841 16.78612505 0.81640625 16.77636719 C-0.91089722 16.77398041 -0.91089722 16.77398041 -2.6730957 16.77154541 C-5.57412564 16.52261393 -7.21465134 16.09209043 -9.6328125 14.51757812 C-11.52167503 11.99909475 -11.63997089 10.68937944 -11.5078125 7.51757812 C-9.65898324 1.17873494 -6.27598631 0.01682513 0 0 Z " fill="#000000" transform="translate(267.6328125,439.482421875)"/>
<path d="M0 0 C1.18803223 -0.01260864 2.37606445 -0.02521729 3.60009766 -0.03820801 C4.87933105 -0.03011108 6.15856445 -0.02201416 7.4765625 -0.01367188 C8.79317871 -0.01749878 10.10979492 -0.02132568 11.46630859 -0.02526855 C14.25051684 -0.03115911 17.03421099 -0.02261601 19.81835938 -0.00390625 C23.38305583 0.01888437 26.94654768 0.00575872 30.51119995 -0.01819611 C33.9164168 -0.03614518 37.32131144 -0.02356965 40.7265625 -0.01367188 C42.6454126 -0.02581726 42.6454126 -0.02581726 44.60302734 -0.03820801 C46.38507568 -0.01929504 46.38507568 -0.01929504 48.203125 0 C49.24807129 0.00318237 50.29301758 0.00636475 51.36962891 0.00964355 C54.79416695 0.64635056 55.96053445 1.82548182 58.1015625 4.51757812 C59.18388931 7.53263138 59.20925937 9.09658128 58.4140625 12.20507812 C56.85211434 14.95708202 56.01680042 15.40070634 53.1015625 16.51757812 C50.44555664 16.77154541 50.44555664 16.77154541 47.38671875 16.77636719 C46.23872803 16.78267151 45.0907373 16.78897583 43.90795898 16.79547119 C42.67247314 16.79142273 41.4369873 16.78737427 40.1640625 16.78320312 C38.89183838 16.78511658 37.61961426 16.78703003 36.30883789 16.78900146 C33.61883943 16.79036255 30.92920435 16.78767629 28.23925781 16.77832031 C24.79593819 16.766926 21.35293038 16.77348897 17.90962219 16.78546524 C14.61942453 16.79444079 11.32926424 16.78815166 8.0390625 16.78320312 C6.18583374 16.78927582 6.18583374 16.78927582 4.29516602 16.79547119 C3.14717529 16.78916687 1.99918457 16.78286255 0.81640625 16.77636719 C-0.69771851 16.77398041 -0.69771851 16.77398041 -2.24243164 16.77154541 C-4.97621602 16.51014094 -6.59311047 15.97867906 -8.8984375 14.51757812 C-10.78730003 11.99909475 -10.90559589 10.68937944 -10.7734375 7.51757812 C-9.04701315 1.59840893 -5.94902788 0.0181177 0 0 Z " fill="#000000" transform="translate(188.8984375,439.482421875)"/>
<path d="M0 0 C1.22783203 -0.01611328 2.45566406 -0.03222656 3.72070312 -0.04882812 C4.90470703 -0.04947266 6.08871094 -0.05011719 7.30859375 -0.05078125 C8.38810303 -0.05376221 9.4676123 -0.05674316 10.57983398 -0.05981445 C13.95817188 0.36189016 15.83876469 1.30284572 18.5625 3.3125 C20.10836876 6.40423752 19.85609521 8.90679552 19.5625 12.3125 C17.98242188 14.50805664 17.98242188 14.50805664 15.5625 16.3125 C12.32617188 16.81420898 12.32617188 16.81420898 8.53125 16.80859375 C7.52185364 16.8107766 7.52185364 16.8107766 6.49206543 16.81300354 C5.0732794 16.811348 3.65447477 16.79982503 2.23583984 16.77905273 C0.06920783 16.75008967 -2.09497624 16.75844949 -4.26171875 16.77148438 C-5.64324101 16.76524642 -7.02475557 16.75685502 -8.40625 16.74609375 C-9.65857422 16.73634521 -10.91089844 16.72659668 -12.20117188 16.71655273 C-15.63484704 16.28786139 -17.03932564 15.76021445 -19.4375 13.3125 C-20.60129881 9.74351699 -20.74670437 8.02855223 -19.25 4.5625 C-14.39312394 -1.46672546 -7.08634745 -0.01854094 0 0 Z " fill="#000000" transform="translate(198.4375,466.6875)"/>
<path d="M0 0 C2.29000466 3.43500699 2.29748064 4.88728019 2.3125 8.9375 C2.32925781 9.97777344 2.34601563 11.01804687 2.36328125 12.08984375 C1.95559336 15.35573059 1.31897368 16.69709311 -1 19 C-4.97344161 20.10373378 -7.08999772 20.41543583 -10.875 18.6875 C-13 17 -13 17 -14 15 C-14.17369832 13.04660577 -14.26696102 11.08557296 -14.3125 9.125 C-14.34988281 8.07570313 -14.38726562 7.02640625 -14.42578125 5.9453125 C-13.89992104 2.30771068 -12.86714047 1.22138811 -10 -1 C-6.00471255 -2.33176248 -3.90144863 -1.41870859 0 0 Z " fill="#000000" transform="translate(262,384)"/>
</svg>
